Coordinates
version=1
nRows=27
nColumns=33
inDegrees=yes

Units are S.I. units (second, meters, Newtons, ...)
Angles are in degrees.

endheader
time	ground_thorax_rot_x	ground_thorax_rot_y	ground_thorax_rot_z	ground_thorax_tx	ground_thorax_ty	ground_thorax_tz	clav_prot_r	clav_elev_r	scapula_abduction_r	scapula_elevation_r	scapula_upward_rot_r	scapula_winging_r	shoulder_elv_r	plane_of_elev_r	axial_rot_r	elbow_flexion_r	pro_sup_r	wrist_flex_r	wrist_dev_r	clav_prot_l	clav_elev_l	scapula_abduction_l	scapula_elevation_l	scapula_upward_rot_l	scapula_winging_l	shoulder_elv_l	plane_of_elev_l	axial_rot_l	elbow_flexion_l	pro_sup_l	wrist_flex_l	wrist_dev_l	
2.8000	-0.504374	10.548149	3.319883	-0.197214	1.000987	0.012197	-20.085382	-12.509561	-27.818278	-7.141648	5.083215	4.802393	54.927844	-36.034160	43.548718	81.963138	-6.436884	7.451354	-3.059159	-0.850765	-4.945326	-0.627523	-3.962869	-6.340521	-0.906294	53.494972	-30.324985	-17.358554	84.320199	11.651234	8.529550	-4.479422	
2.8100	-0.537643	10.626966	3.357060	-0.197299	1.000891	0.012111	-19.986684	-12.667801	-27.700083	-7.237363	4.950212	4.915329	54.355889	-35.280358	43.064348	81.091956	-7.985243	6.728309	-3.490022	-0.707575	-5.132990	-0.779337	-3.950348	-6.724634	-0.959619	53.808963	-29.217706	-17.130858	83.762516	11.184357	9.354030	-3.493649	
2.8200	-0.570696	10.702584	3.388545	-0.197363	1.000793	0.012007	-19.881498	-12.834489	-27.571420	-7.339837	4.814518	5.033432	53.816206	-34.510053	42.563638	80.162678	-9.403746	6.009200	-3.774955	-0.560132	-5.328348	-0.941823	-3.929862	-7.106141	-1.010531	54.121015	-28.111077	-16.908557	83.150803	10.770496	10.143530	-2.556694	
2.8300	-0.597206	10.772316	3.405048	-0.197399	1.000716	0.011896	-19.770702	-13.021881	-27.431045	-7.461253	4.677715	5.162764	53.335101	-33.723219	42.020451	79.176471	-10.561390	5.286060	-3.794592	-0.408968	-5.541020	-1.119293	-3.888741	-7.475749	-1.058791	54.416762	-27.015737	-16.680007	82.476148	10.428095	10.874687	-1.694598	
2.8400	-0.625447	10.841371	3.423096	-0.197414	1.000621	0.011784	-19.652464	-13.210239	-27.282369	-7.580480	4.533001	5.294486	52.905893	-32.914075	41.392517	78.141704	-11.381111	4.472966	-3.408528	-0.244695	-5.751227	-1.320639	-3.850932	-7.846789	-1.098604	54.710065	-25.919698	-16.450663	81.748084	10.133846	11.601702	-0.869512	
2.8500	-0.658707	10.912276	3.443788	-0.197411	1.000504	0.011688	-19.528986	-13.394130	-27.133713	-7.689866	4.372914	5.427124	52.525862	-32.070439	40.645904	77.057261	-11.803621	3.538599	-2.525237	-0.063200	-5.956570	-1.545285	-3.828562	-8.242716	-1.132339	55.025907	-24.806169	-16.216310	80.966970	9.873848	12.349646	-0.060761	
2.8600	-0.698455	10.988723	3.471476	-0.197392	1.000358	0.011600	-19.401311	-13.569073	-26.987202	-7.785392	4.197905	5.557981	52.188525	-31.197840	39.767932	75.927030	-11.788056	2.467660	-1.114232	0.138494	-6.153786	-1.794536	-3.828851	-8.673558	-1.159873	55.372844	-23.669285	-15.979452	80.137022	9.627520	13.133526	0.747423	
2.8700	-0.738547	11.066136	3.482456	-0.197349	1.000206	0.011527	-19.271192	-13.749613	-26.840100	-7.883549	4.015156	5.693457	51.879050	-30.299734	38.768266	74.746755	-11.371138	1.325977	0.714306	0.356981	-6.354598	-2.064932	-3.839245	-9.135379	-1.184528	55.744718	-22.505646	-15.724002	79.252515	9.385486	13.931016	1.549980	
2.8800	-0.774181	11.142102	3.494307	-0.197282	1.000054	0.011458	-19.132851	-13.934004	-26.674061	-7.988575	3.842038	5.829255	51.600930	-29.415913	37.711429	73.523633	-10.607466	0.188780	2.827730	0.590777	-6.556581	-2.363575	-3.848595	-9.596269	-1.199268	56.106531	-21.356156	-15.470393	78.314031	9.159822	14.705023	2.311013	
2.8900	-0.800674	11.208200	3.491982	-0.197185	0.999930	0.011391	-18.983234	-14.138116	-26.475699	-8.119902	3.690991	5.971942	51.336497	-28.570182	36.668190	72.254281	-9.686068	-0.845240	4.929592	0.831243	-6.768273	-2.689258	-3.830576	-10.012689	-1.201462	56.422361	-20.251979	-15.220615	77.319228	8.963526	15.409695	3.000987	
2.9000	-0.814581	11.258249	3.497651	-0.197060	0.999846	0.011315	-18.816688	-14.362620	-26.229704	-8.281874	3.573279	6.119661	51.090641	-27.799467	35.732344	70.942774	-8.774862	-1.709030	6.798936	1.073055	-6.989144	-3.044434	-3.768954	-10.345032	-1.185407	56.653985	-19.246097	-15.004823	76.271881	8.815823	16.007223	3.584604	
2.9100	-0.816374	11.289275	3.471580	-0.196901	0.999811	0.011240	-18.634320	-14.615547	-25.939886	-8.480082	3.482997	6.277806	50.829385	-27.077550	34.903398	69.576257	-8.048848	-2.377650	8.271990	1.310442	-7.222580	-3.425085	-3.651862	-10.572747	-1.150940	56.789544	-18.316232	-14.795566	75.162618	8.716289	16.501589	4.069464	
2.9200	-0.816435	11.310429	3.439979	-0.196733	0.999770	0.011168	-18.435412	-14.857851	-25.615707	-8.673330	3.409065	6.426648	50.526586	-26.376751	34.167366	68.145256	-7.615181	-2.904257	9.398266	1.553487	-7.439355	-3.834062	-3.520980	-10.730444	-1.093351	56.855247	-17.423526	-14.598967	73.996088	8.639471	16.973596	4.503993	
2.9300	-0.819251	11.326728	3.404793	-0.196561	0.999721	0.011099	-18.221033	-15.085406	-25.264198	-8.854343	3.342082	6.565354	50.187278	-25.684043	33.518123	66.649511	-7.458542	-3.322487	10.224745	1.804414	-7.640324	-4.267195	-3.386400	-10.844019	-1.017188	56.879265	-16.547516	-14.412475	72.775342	8.577387	17.447099	4.908705	
2.9400	-0.833443	11.348777	3.393645	-0.196401	0.999615	0.011026	-17.992619	-15.266221	-24.891420	-8.992362	3.281730	6.675326	49.800040	-24.980795	32.925011	65.078409	-7.510117	-3.667766	10.902714	2.076630	-7.800889	-4.733146	-3.289078	-10.956317	-0.916955	56.889688	-15.651820	-14.236279	71.502135	8.508413	17.984127	5.306800	
2.9500	-0.857547	11.376768	3.386936	-0.196247	0.999475	0.010947	-17.752778	-15.417450	-24.498727	-9.104645	3.229906	6.765857	49.381733	-24.264645	32.379757	63.443734	-7.672753	-3.958141	11.488332	2.367892	-7.937744	-5.227060	-3.216965	-11.075486	-0.799841	56.902528	-14.728993	-14.054211	70.174126	8.435200	18.568807	5.702021	
2.9600	-0.890421	11.414829	3.394575	-0.196103	0.999283	0.010857	-17.506152	-15.527895	-24.091037	-9.183409	3.194319	6.828887	48.931439	-23.528739	31.869513	61.739777	-7.907483	-4.195176	12.050717	2.684854	-8.043670	-5.755184	-3.184192	-11.219082	-0.662956	56.924367	-13.767056	-13.865558	68.791726	8.349753	19.220917	6.092474	
2.9700	-0.918880	11.451512	3.401498	-0.195946	0.999110	0.010760	-17.255077	-15.644758	-23.666652	-9.274215	3.175416	6.891388	48.509630	-22.809606	31.449153	60.006151	-8.161410	-4.384999	12.525583	3.010494	-8.162387	-6.299126	-3.138926	-11.360641	-0.522032	56.947128	-12.823235	-13.689346	67.360718	8.280248	19.853083	6.450983	
2.9800	-0.940905	11.487028	3.406110	-0.195775	0.998944	0.010654	-17.001897	-15.762070	-23.232672	-9.369617	3.168094	6.950729	48.117745	-22.095773	31.099218	58.244909	-8.437842	-4.527776	12.935499	3.344128	-8.288606	-6.858385	-3.084236	-11.495893	-0.374944	56.964872	-11.892105	-13.529538	65.878592	8.218949	20.471290	6.768599	
2.9900	-0.950025	11.509349	3.398892	-0.195572	0.998837	0.010557	-16.746076	-15.915121	-22.791659	-9.498392	3.158036	7.029918	47.795800	-21.415833	30.836434	56.501835	-8.684206	-4.650701	13.259140	3.669240	-8.453282	-7.413860	-2.980157	-11.598300	-0.234762	56.970223	-11.022352	-13.404833	64.348127	8.184392	21.009140	7.033751	
3.0000	-0.950810	11.527740	3.387826	-0.195357	0.998723	0.010465	-16.489100	-16.063092	-22.354785	-9.618305	3.136716	7.106440	47.509320	-20.727376	30.600014	54.753233	-8.930732	-4.742304	13.573215	3.997733	-8.617621	-7.979104	-2.868690	-11.682271	-0.086543	56.953760	-10.161385	-13.296407	62.757702	8.141674	21.533582	7.240577	
3.0100	-0.941055	11.537567	3.378742	-0.195127	0.998627	0.010386	-16.227685	-16.222605	-21.916865	-9.743738	3.100123	7.190662	47.284748	-20.062218	30.415943	53.037836	-9.133729	-4.816475	13.843336	4.324295	-8.795964	-8.548416	-2.732431	-11.737969	0.064342	56.915962	-9.341132	-13.221264	61.114211	8.106526	22.005937	7.386212	
3.0200	-0.929552	11.548956	3.371670	-0.194897	0.998504	0.010309	-15.963372	-16.366182	-21.483447	-9.848380	3.048298	7.266518	47.080622	-19.391983	30.235012	51.334252	-9.309630	-4.865283	14.101094	4.659217	-8.961668	-9.133327	-2.602458	-11.780405	0.228238	56.859053	-8.516088	-13.154869	59.414644	8.061773	22.474884	7.478103	
3.0300	-0.914508	11.556584	3.353895	-0.194654	0.998394	0.010238	-15.696960	-16.516863	-21.051744	-9.955716	2.984707	7.347222	46.906248	-18.735797	30.064863	49.667649	-9.415126	-4.899553	14.293136	4.997409	-9.133001	-9.728710	-2.457945	-11.800182	0.398648	56.790301	-7.706877	-13.100217	57.662825	8.029506	22.898807	7.516610	
3.0400	-0.904954	11.571698	3.336791	-0.194420	0.998257	0.010162	-15.434399	-16.644622	-20.633879	-10.037709	2.911079	7.414689	46.718920	-18.060791	29.869187	47.998829	-9.464720	-4.888018	14.436557	5.353837	-9.276685	-10.353932	-2.336827	-11.814587	0.591897	56.703294	-6.870810	-13.035423	55.848751	7.992322	23.321183	7.471718	
3.0500	-0.897897	11.589915	3.303721	-0.194174	0.998140	0.010081	-15.178098	-16.779343	-20.227370	-10.125864	2.834529	7.486037	46.532966	-17.391396	29.660730	46.351953	-9.419199	-4.847708	14.485641	5.719603	-9.418706	-10.998809	-2.209318	-11.809739	0.797449	56.607549	-6.036116	-12.973254	53.985453	7.978741	23.695906	7.358246	
3.0600	-0.898963	11.612998	3.272441	-0.193915	0.998057	0.009987	-14.931196	-16.919451	-19.837484	-10.219065	2.755611	7.560752	46.337825	-16.738294	29.440387	44.719506	-9.274200	-4.776888	14.443847	6.091025	-9.557498	-11.656251	-2.077702	-11.787689	1.012793	56.500983	-5.216188	-12.924944	52.085663	7.990988	24.023355	7.180233	
